<?xml version="1.0" encoding="UTF-8" standalone="no" ?>
<!DOCTYPE svg PUBLIC "-//W3C//DTD SVG 1.1//EN" "http://www.w3.org/Graphics/SVG/1.1/DTD/svg11.dtd">
<svg xmlns="http://www.w3.org/2000/svg" xmlns:xlink="http://www.w3.org/1999/xlink" version="1.1" width="346.16990000000004" height="340.9346" xml:space="preserve">
<desc>Created with Fabric.js 1.6.0-rc.1</desc>
<defs></defs>
  <g transform="translate(223.28 183.54) scale(2.11 2.11)">
   <text font-family="PROMESH" font-size="40" font-weight="normal" style="stroke: none; stroke-width: 1; stroke-dasharray: none; stroke-linecap: butt; stroke-linejoin: miter; stroke-miterlimit: 10; fill: #ff0000; fill-rule: nonzero; opacity: 1;" ><tspan x="-23.02" y="8.98" style="stroke: none; stroke-width: 0; stroke-dasharray: none; stroke-linecap: butt; stroke-linejoin: miter; stroke-miterlimit: 4; fill: #ff0000; fill-rule: ; opacity: 1;">Y</tspan><tspan x="3.18" y="8.98" style="stroke: none; stroke-width: 0; stroke-dasharray: none; stroke-linecap: butt; stroke-linejoin: miter; stroke-miterlimit: 4; fill: #ff0000; fill-rule: ; opacity: 1;">g</tspan></text>
 </g>
<g style="stroke: none; stroke-width: 1; stroke-dasharray: none; stroke-linecap: butt; stroke-linejoin: miter; stroke-miterlimit: 10; fill: none; fill-rule: nonzero; opacity: 1;" transform="translate(56.430000000000064 103.57000000000001) scale(0.75 0.75)" >
  <path d="M 159.785 22.946 L 78.016 0 L 0 47.142 l 48.812 15.02 l -4.009 -18.178 l 0.113 -0.025 c -0.007 -0.019 -0.016 -0.039 -0.02 -0.059 c -1.461 -6.547 14.891 -15.766 36.521 -20.592 c 21.63 -4.831 40.349 -3.435 41.81 3.11 c 0.004 0.022 0.006 0.043 0.008 0.063 l 0.111 -0.027 l 3.063 15.684 L 159.785 22.946 z" style="stroke: none; stroke-width: 1; stroke-dasharray: none; stroke-linecap: butt; stroke-linejoin: miter; stroke-miterlimit: 10; fill: #303435; fill-rule: nonzero; opacity: 1;" transform=" matrix(1 0 0 1 0 0) " stroke-linecap="round" />
  <path d="M 147.445 68.177 c -4.105 0.068 -7.332 6.048 -7.207 13.355 c 0.027 1.62 0.219 3.17 0.543 4.6 l 2.949 -0.051 l 0.658 -4.793 l 0.615 4.774 l 4.512 -0.079 l 0.613 -5.639 l 1.055 5.61 l 3.533 -0.06 c 0.275 -1.44 0.414 -2.996 0.385 -4.615 C 154.976 73.972 151.55 68.106 147.445 68.177 z" style="stroke: none; stroke-width: 1; stroke-dasharray: none; stroke-linecap: butt; stroke-linejoin: miter; stroke-miterlimit: 10; fill: #A5720C; fill-rule: nonzero; opacity: 1;" transform=" matrix(1 0 0 1 0 0) " stroke-linecap="round" />
  <path d="M 88.949 50.029 c -17.752 3.78 -32.967 14.022 -33.606 14.457 l -0.699 0.475 L 54.54 65.8 c -0.063 0.499 -1.487 12.286 1.028 18.284 c 2.077 4.958 1.289 9.485 -0.08 10.847 c -0.972 0.968 -3.285 0.616 -4.019 0.417 L 47.982 94.4 l 1.237 3.39 c 0.111 0.301 2.77 7.393 8.231 8.764 c 2.497 0.626 4.329 0.463 5.657 0.095 c 0.03 0.279 0.058 0.568 0.058 0.909 c 0 1.09 -0.19 2.493 -0.81 4.171 c -1.521 4.119 -5.335 4.984 -5.497 5.02 l -4.317 0.93 l 3.66 2.452 l 44.582 29.716 l 6.272 -23.589 c 0 0 -0.85 -3.929 -1.412 -6.534 c 3.412 0.452 9.07 0.616 12.691 -2.389 c 6.482 -5.373 7.844 -31.85 7.857 -32.117 c 0.037 -0.79 0.055 -1.566 0.055 -2.324 c 0 -6.257 -1.184 -11.275 -1.535 -12.623 c 0.055 -0.575 0.422 -4.521 0.422 -4.521 l -2.182 -14.888 l -1.148 -0.337 C 121.201 50.348 106.806 46.223 88.949 50.029 z M 89.727 53.681 c 14.154 -3.016 26.248 -0.711 29.886 0.141 c 0.293 2 1.705 11.639 1.762 12.027 c -0.037 0.404 -0.443 4.756 -0.443 4.756 l 0.096 0.337 c 0.016 0.058 1.486 5.326 1.486 11.985 c 0 0.689 -0.016 1.394 -0.051 2.108 c -0.492 10.098 -2.902 26.433 -6.512 29.425 c -3.215 2.668 -9.938 1.711 -12.258 1.115 l -2.927 -0.75 c 0 0 2.279 10.547 2.451 11.34 c -0.193 0.73 -3.693 13.889 -4.701 17.68 c -3.633 -2.422 -32.766 -21.84 -37.417 -24.941 c 1.721 -1.084 3.656 -2.891 4.761 -5.883 c 0.786 -2.13 1.044 -3.968 1.044 -5.464 c 0 -2.6 -0.779 -4.162 -0.914 -4.415 l -1.084 -2.016 l -1.821 1.524 c -0.056 0.046 -1.388 1.117 -4.725 0.281 c -1.746 -0.438 -3.195 -2.085 -4.212 -3.672 c 1.354 -0.118 2.826 -0.54 3.976 -1.683 c 1.453 -1.447 2.446 -4.176 2.446 -7.503 c 0 -2.271 -0.462 -4.822 -1.557 -7.434 c -0.917 -2.185 -1.192 -5.663 -1.192 -8.942 c 0 -2.578 0.169 -4.98 0.335 -6.589 C 61.34 65.07 74.8 56.859 89.727 53.681 z" style="stroke: none; stroke-width: 1; stroke-dasharray: none; stroke-linecap: butt; stroke-linejoin: miter; stroke-miterlimit: 10; fill: #303435; fill-rule: nonzero; opacity: 1;" transform=" matrix(1 0 0 1 0 0) " stroke-linecap="round" />
  <polygon points="108.99,121.22 129.11,127.51 105.19,168.62 24.71,129.01 49.13,120.28 102.63,154.48 110.17,127.26 " style="stroke: none; stroke-width: 1; stroke-dasharray: none; stroke-linecap: butt; stroke-linejoin: miter; stroke-miterlimit: 10; fill: #303435; fill-rule: nonzero; opacity: 1;" transform="  matrix(1 0 0 1 0 0) "/>
  <path d="M 52.309 63.517 l 0.15 -0.033 c 0.375 0.89 1.172 1.654 2.314 2.29 c 0.121 -1.595 0.248 -2.619 0.248 -2.619 s 16.03 -10.891 34.415 -14.809 c 18.383 -3.913 33.362 0.487 33.362 0.487 l 0.252 1.719 c 0.775 -1.07 1.18 -2.105 1.139 -3.076 l 0.148 -0.034 l -4.225 -18.917 l -0.102 0.022 c -0.002 -0.019 -0.002 -0.037 -0.006 -0.056 c -1.281 -5.741 -18.402 -6.807 -38.236 -2.379 c -19.836 4.428 -34.879 12.67 -33.599 18.414 c 0.006 0.018 0.015 0.034 0.019 0.05 L 48.088 44.6 L 52.309 63.517 z" style="stroke: none; stroke-width: 1; stroke-dasharray: none; stroke-linecap: butt; stroke-linejoin: miter; stroke-miterlimit: 10; fill: #303435; fill-rule: nonzero; opacity: 1;" transform=" matrix(1 0 0 1 0 0) " stroke-linecap="round" />
  <path d="M 147.445 68.177 c -4.105 0.068 -7.332 6.048 -7.207 13.355 c 0.027 1.62 0.219 3.17 0.543 4.6 l 2.949 -0.051 l 0.658 -4.793 l 0.615 4.774 l 4.512 -0.079 l 0.613 -5.639 l 1.055 5.61 l 3.533 -0.06 c 0.275 -1.44 0.414 -2.996 0.385 -4.615 C 154.976 73.972 151.55 68.106 147.445 68.177 z" style="stroke: none; stroke-width: 1; stroke-dasharray: none; stroke-linecap: butt; stroke-linejoin: miter; stroke-miterlimit: 10; fill: #A5720C; fill-rule: nonzero; opacity: 1;" transform=" matrix(1 0 0 1 0 0) " stroke-linecap="round" />
  <polygon points="148.76,66.63 148.15,32.32 145.56,33.19 146.09,66.63 " style="stroke: none; stroke-width: 1; stroke-dasharray: none; stroke-linecap: butt; stroke-linejoin: miter; stroke-miterlimit: 10; fill: #303435; fill-rule: nonzero; opacity: 1;" transform="  matrix(1 0 0 1 0 0) "/>
</g>
<g style="stroke: none; stroke-width: 1; stroke-dasharray: none; stroke-linecap: butt; stroke-linejoin: miter; stroke-miterlimit: 10; fill: none; fill-rule: nonzero; opacity: 1;" transform="translate(10 10) scale(0.63 0.63)" >
  <path d="M 516.727 266.696 c -0.665 -34.825 -8.221 -69.54 -22.175 -101.283 c -13.908 -31.771 -34.094 -60.551 -58.876 -84.333 c -24.767 -23.8 -54.139 -42.615 -85.929 -55.027 c -31.773 -12.46 -65.937 -18.412 -99.687 -17.69 c -33.755 0.668 -67.36 8.007 -98.091 21.539 c -30.754 13.488 -58.615 33.058 -81.632 57.071 c -23.033 24.001 -41.229 52.452 -53.222 83.229 C 5.077 200.962 -0.66 234.013 0.06 266.696 c 0.67 32.688 7.793 65.182 20.903 94.899 c 13.067 29.738 32.019 56.681 55.266 78.931 c 23.234 22.268 50.766 39.846 80.528 51.417 c 29.749 11.616 61.69 17.136 93.303 16.419 c 31.62 -0.671 63.001 -7.58 91.707 -20.268 c 28.724 -12.646 54.747 -30.979 76.231 -53.461 c 21.503 -22.469 38.461 -49.08 49.611 -77.827 c 6.79 -17.427 11.396 -35.624 13.824 -54.062 c 0.649 0.037 1.302 0.063 1.96 0.063 c 18.409 0 33.333 -14.923 33.333 -33.333 c 0 -0.936 -0.049 -1.861 -0.124 -2.777 L 516.727 266.696 L 516.727 266.696 z M 463.762 355.21 c -12.226 27.71 -29.94 52.812 -51.655 73.532 c -21.703 20.732 -47.396 37.076 -75.127 47.807 c -27.724 10.77 -57.443 15.859 -86.919 15.146 c -29.481 -0.677 -58.644 -7.154 -85.323 -18.997 c -26.692 -11.806 -50.877 -28.901 -70.83 -49.849 c -19.968 -20.938 -35.691 -45.711 -46.001 -72.427 c -10.349 -26.712 -15.223 -55.321 -14.512 -83.728 c 0.678 -28.413 6.941 -56.465 18.361 -82.131 c 11.384 -25.677 27.863 -48.943 48.045 -68.13 c 20.172 -19.202 44.026 -34.307 69.726 -44.195 c 25.697 -9.928 53.195 -14.587 80.534 -13.877 c 27.343 0.68 54.286 6.728 78.939 17.726 c 24.662 10.963 47.008 26.824 65.429 46.241 c 18.436 19.405 32.922 42.341 42.391 67.025 c 9.504 24.684 13.948 51.072 13.241 77.342 h 0.125 c -0.076 0.916 -0.125 1.841 -0.125 2.777 c 0 17.193 13.018 31.34 29.732 33.137 C 476.551 320.747 471.184 338.453 463.762 355.21 z" style="stroke: none; stroke-width: 1; stroke-dasharray: none; stroke-linecap: butt; stroke-linejoin: miter; stroke-miterlimit: 10; fill: #f04000; fill-rule: nonzero; opacity: 1;" transform="" stroke-linecap="round" />
</g>
  <g transform="translate(166.86 259.08) scale(0.6 0.6)">
   <text font-family="Merkin Foo" font-size="40" font-style="italic" font-weight="bold" style="stroke: none; stroke-width: 1; stroke-dasharray: none; stroke-linecap: butt; stroke-linejoin: miter; stroke-miterlimit: 10; fill: #592f0e; fill-rule: nonzero; opacity: 1;" ><tspan x="-144.14" y="8.98" style="stroke: none; stroke-width: 0; stroke-dasharray: none; stroke-linecap: butt; stroke-linejoin: miter; stroke-miterlimit: 4; fill: #592f0e; fill-rule: ; opacity: 1;">Y</tspan><tspan x="-112.18" y="8.98" style="stroke: none; stroke-width: 0; stroke-dasharray: none; stroke-linecap: butt; stroke-linejoin: miter; stroke-miterlimit: 4; fill: #592f0e; fill-rule: ; opacity: 1;">U</tspan><tspan x="-79.9" y="8.98" style="stroke: none; stroke-width: 0; stroke-dasharray: none; stroke-linecap: butt; stroke-linejoin: miter; stroke-miterlimit: 4; fill: #592f0e; fill-rule: ; opacity: 1;">G</tspan><tspan x="-46.78" y="8.98" style="stroke: none; stroke-width: 0; stroke-dasharray: none; stroke-linecap: butt; stroke-linejoin: miter; stroke-miterlimit: 4; fill: #592f0e; fill-rule: ; opacity: 1;">B</tspan><tspan x="-15.7" y="8.98" style="stroke: none; stroke-width: 0; stroke-dasharray: none; stroke-linecap: butt; stroke-linejoin: miter; stroke-miterlimit: 4; fill: #592f0e; fill-rule: ; opacity: 1;">I</tspan><tspan x="-0.46" y="8.98" style="stroke: none; stroke-width: 0; stroke-dasharray: none; stroke-linecap: butt; stroke-linejoin: miter; stroke-miterlimit: 4; fill: #592f0e; fill-rule: ; opacity: 1;">N</tspan><tspan x="32.62" y="8.98" style="stroke: none; stroke-width: 0; stroke-dasharray: none; stroke-linecap: butt; stroke-linejoin: miter; stroke-miterlimit: 4; fill: #592f0e; fill-rule: ; opacity: 1;">A</tspan><tspan x="67.98" y="8.98" style="stroke: none; stroke-width: 0; stroke-dasharray: none; stroke-linecap: butt; stroke-linejoin: miter; stroke-miterlimit: 4; fill: #592f0e; fill-rule: ; opacity: 1;"> </tspan><tspan x="82.26" y="8.98" style="stroke: none; stroke-width: 0; stroke-dasharray: none; stroke-linecap: butt; stroke-linejoin: miter; stroke-miterlimit: 4; fill: #592f0e; fill-rule: ; opacity: 1;">G</tspan><tspan x="115.38" y="8.98" style="stroke: none; stroke-width: 0; stroke-dasharray: none; stroke-linecap: butt; stroke-linejoin: miter; stroke-miterlimit: 4; fill: #592f0e; fill-rule: ; opacity: 1;">S</tspan></text>
 </g>
</svg>